<mxfile host="app.diagrams.net" modified="2023-11-20T14:16:42.329Z" agent="Mozilla/5.0 (X11; Linux x86_64) AppleWebKit/537.36 (KHTML, like Gecko) Chrome/119.0.0.0 Safari/537.36" etag="5FIUELVyoSoEH_Q7m62O" version="22.1.3" type="github">
  <diagram name="Page-1" id="4PE-K_CKxyQ-b7U5i8Yo">
    <mxGraphModel dx="700" dy="394" grid="1" gridSize="10" guides="1" tooltips="1" connect="1" arrows="1" fold="1" page="1" pageScale="1" pageWidth="850" pageHeight="1100" math="0" shadow="0">
      <root>
        <mxCell id="0" />
        <mxCell id="1" parent="0" />
        <mxCell id="QkZP8UbgmEBXB7G_kgU3-68" value="" style="ellipse;whiteSpace=wrap;html=1;aspect=fixed;strokeColor=#FF9999;" vertex="1" parent="1">
          <mxGeometry x="200" y="390" width="20" height="20" as="geometry" />
        </mxCell>
        <mxCell id="QkZP8UbgmEBXB7G_kgU3-65" value="" style="ellipse;whiteSpace=wrap;html=1;aspect=fixed;strokeColor=#FF9999;" vertex="1" parent="1">
          <mxGeometry x="175" y="390" width="20" height="20" as="geometry" />
        </mxCell>
        <mxCell id="QkZP8UbgmEBXB7G_kgU3-66" value="" style="rounded=0;whiteSpace=wrap;html=1;strokeColor=#FFFFFF;" vertex="1" parent="1">
          <mxGeometry x="171" y="401" width="53" height="9" as="geometry" />
        </mxCell>
        <mxCell id="QkZP8UbgmEBXB7G_kgU3-61" value="" style="ellipse;whiteSpace=wrap;html=1;aspect=fixed;strokeColor=#CCE5FF;" vertex="1" parent="1">
          <mxGeometry x="175" y="410" width="20" height="20" as="geometry" />
        </mxCell>
        <mxCell id="QkZP8UbgmEBXB7G_kgU3-62" value="" style="rounded=0;whiteSpace=wrap;html=1;strokeColor=#FFFFFF;" vertex="1" parent="1">
          <mxGeometry x="171" y="421" width="29" height="9" as="geometry" />
        </mxCell>
        <mxCell id="QkZP8UbgmEBXB7G_kgU3-53" value="" style="ellipse;whiteSpace=wrap;html=1;aspect=fixed;strokeColor=#33FF33;" vertex="1" parent="1">
          <mxGeometry x="175" y="465" width="10" height="10" as="geometry" />
        </mxCell>
        <mxCell id="QkZP8UbgmEBXB7G_kgU3-56" value="" style="rounded=0;whiteSpace=wrap;html=1;strokeColor=#FFFFFF;" vertex="1" parent="1">
          <mxGeometry x="172" y="471" width="15" height="7" as="geometry" />
        </mxCell>
        <mxCell id="QkZP8UbgmEBXB7G_kgU3-32" value="" style="ellipse;whiteSpace=wrap;html=1;aspect=fixed;strokeColor=#CCE5FF;" vertex="1" parent="1">
          <mxGeometry x="290" y="440" width="20" height="20" as="geometry" />
        </mxCell>
        <mxCell id="QkZP8UbgmEBXB7G_kgU3-37" value="" style="rounded=0;whiteSpace=wrap;html=1;strokeColor=#FFFFFFF;" vertex="1" parent="1">
          <mxGeometry x="280" y="435" width="40" height="15" as="geometry" />
        </mxCell>
        <mxCell id="QkZP8UbgmEBXB7G_kgU3-17" value="" style="ellipse;whiteSpace=wrap;html=1;aspect=fixed;strokeColor=#CCE5FF;" vertex="1" parent="1">
          <mxGeometry x="320" y="290" width="20" height="20" as="geometry" />
        </mxCell>
        <mxCell id="QkZP8UbgmEBXB7G_kgU3-20" value="" style="whiteSpace=wrap;html=1;aspect=fixed;strokeColor=#FFFFFF;" vertex="1" parent="1">
          <mxGeometry x="310" y="290" width="20" height="20" as="geometry" />
        </mxCell>
        <mxCell id="QkZP8UbgmEBXB7G_kgU3-1" value="Battery" style="whiteSpace=wrap;html=1;aspect=fixed;" vertex="1" parent="1">
          <mxGeometry x="40" y="240" width="80" height="80" as="geometry" />
        </mxCell>
        <mxCell id="QkZP8UbgmEBXB7G_kgU3-2" value="Husky" style="whiteSpace=wrap;html=1;aspect=fixed;" vertex="1" parent="1">
          <mxGeometry x="440" y="240" width="80" height="80" as="geometry" />
        </mxCell>
        <mxCell id="QkZP8UbgmEBXB7G_kgU3-3" value="" style="endArrow=none;html=1;rounded=0;exitX=1;exitY=0.25;exitDx=0;exitDy=0;strokeColor=#CCE5FF;" edge="1" parent="1" source="QkZP8UbgmEBXB7G_kgU3-1">
          <mxGeometry width="50" height="50" relative="1" as="geometry">
            <mxPoint x="400" y="440" as="sourcePoint" />
            <mxPoint x="440" y="260" as="targetPoint" />
          </mxGeometry>
        </mxCell>
        <mxCell id="QkZP8UbgmEBXB7G_kgU3-6" value="" style="endArrow=none;html=1;rounded=0;exitX=1;exitY=0.75;exitDx=0;exitDy=0;entryX=0;entryY=0.5;entryDx=0;entryDy=0;strokeColor=#FF9999;" edge="1" parent="1" source="QkZP8UbgmEBXB7G_kgU3-1">
          <mxGeometry width="50" height="50" relative="1" as="geometry">
            <mxPoint x="240" y="420" as="sourcePoint" />
            <mxPoint x="170" y="300" as="targetPoint" />
          </mxGeometry>
        </mxCell>
        <mxCell id="QkZP8UbgmEBXB7G_kgU3-7" value="" style="endArrow=none;html=1;rounded=0;exitX=1;exitY=0.5;exitDx=0;exitDy=0;strokeColor=#FF9999;" edge="1" parent="1" source="QkZP8UbgmEBXB7G_kgU3-17">
          <mxGeometry width="50" height="50" relative="1" as="geometry">
            <mxPoint x="330" y="300" as="sourcePoint" />
            <mxPoint x="440" y="300" as="targetPoint" />
          </mxGeometry>
        </mxCell>
        <mxCell id="QkZP8UbgmEBXB7G_kgU3-9" value="INA 260" style="rounded=0;whiteSpace=wrap;html=1;" vertex="1" parent="1">
          <mxGeometry x="170" y="280" width="80" height="40" as="geometry" />
        </mxCell>
        <mxCell id="QkZP8UbgmEBXB7G_kgU3-10" value="" style="endArrow=none;html=1;rounded=0;strokeColor=#FF9999;" edge="1" parent="1">
          <mxGeometry width="50" height="50" relative="1" as="geometry">
            <mxPoint x="300" y="380" as="sourcePoint" />
            <mxPoint x="300" y="300" as="targetPoint" />
          </mxGeometry>
        </mxCell>
        <mxCell id="QkZP8UbgmEBXB7G_kgU3-12" value="StepDown" style="rounded=0;whiteSpace=wrap;html=1;" vertex="1" parent="1">
          <mxGeometry x="270" y="380" width="90" height="30" as="geometry" />
        </mxCell>
        <mxCell id="QkZP8UbgmEBXB7G_kgU3-13" value="24V" style="text;html=1;strokeColor=none;fillColor=none;align=center;verticalAlign=middle;whiteSpace=wrap;rounded=0;" vertex="1" parent="1">
          <mxGeometry x="110" y="265" width="60" height="30" as="geometry" />
        </mxCell>
        <mxCell id="QkZP8UbgmEBXB7G_kgU3-15" value="" style="endArrow=none;html=1;rounded=0;strokeColor=#CCE5FF;" edge="1" parent="1">
          <mxGeometry width="50" height="50" relative="1" as="geometry">
            <mxPoint x="330" y="380" as="sourcePoint" />
            <mxPoint x="330" y="310" as="targetPoint" />
          </mxGeometry>
        </mxCell>
        <mxCell id="QkZP8UbgmEBXB7G_kgU3-16" value="" style="endArrow=none;html=1;rounded=0;strokeColor=#CCE5FF;" edge="1" parent="1">
          <mxGeometry width="50" height="50" relative="1" as="geometry">
            <mxPoint x="330" y="260" as="sourcePoint" />
            <mxPoint x="330" y="290" as="targetPoint" />
          </mxGeometry>
        </mxCell>
        <mxCell id="QkZP8UbgmEBXB7G_kgU3-21" value="" style="endArrow=none;html=1;rounded=0;entryX=1;entryY=0.5;entryDx=0;entryDy=0;exitX=1;exitY=0.5;exitDx=0;exitDy=0;strokeColor=#FF9999;" edge="1" parent="1" source="QkZP8UbgmEBXB7G_kgU3-9" target="QkZP8UbgmEBXB7G_kgU3-17">
          <mxGeometry width="50" height="50" relative="1" as="geometry">
            <mxPoint x="250" y="300" as="sourcePoint" />
            <mxPoint x="680" y="300" as="targetPoint" />
          </mxGeometry>
        </mxCell>
        <mxCell id="QkZP8UbgmEBXB7G_kgU3-23" value="MCU" style="rounded=0;whiteSpace=wrap;html=1;" vertex="1" parent="1">
          <mxGeometry x="280" y="470" width="70" height="40" as="geometry" />
        </mxCell>
        <mxCell id="QkZP8UbgmEBXB7G_kgU3-24" value="" style="endArrow=none;html=1;rounded=0;entryX=0.33;entryY=0.989;entryDx=0;entryDy=0;entryPerimeter=0;exitX=0.29;exitY=0.017;exitDx=0;exitDy=0;exitPerimeter=0;strokeColor=#FF9999;" edge="1" parent="1" source="QkZP8UbgmEBXB7G_kgU3-23" target="QkZP8UbgmEBXB7G_kgU3-12">
          <mxGeometry width="50" height="50" relative="1" as="geometry">
            <mxPoint x="210" y="440" as="sourcePoint" />
            <mxPoint x="260" y="390" as="targetPoint" />
          </mxGeometry>
        </mxCell>
        <mxCell id="QkZP8UbgmEBXB7G_kgU3-26" value="5V" style="text;html=1;strokeColor=none;fillColor=none;align=center;verticalAlign=middle;whiteSpace=wrap;rounded=0;" vertex="1" parent="1">
          <mxGeometry x="285" y="410" width="60" height="30" as="geometry" />
        </mxCell>
        <mxCell id="QkZP8UbgmEBXB7G_kgU3-27" value="" style="endArrow=none;html=1;rounded=0;entryX=0.75;entryY=1;entryDx=0;entryDy=0;strokeColor=#FF9999;" edge="1" parent="1" target="QkZP8UbgmEBXB7G_kgU3-9">
          <mxGeometry width="50" height="50" relative="1" as="geometry">
            <mxPoint x="230" y="430" as="sourcePoint" />
            <mxPoint x="320" y="400" as="targetPoint" />
          </mxGeometry>
        </mxCell>
        <mxCell id="QkZP8UbgmEBXB7G_kgU3-31" value="" style="endArrow=none;html=1;rounded=0;strokeColor=#FF9999;" edge="1" parent="1">
          <mxGeometry width="50" height="50" relative="1" as="geometry">
            <mxPoint x="230" y="430" as="sourcePoint" />
            <mxPoint x="300" y="430" as="targetPoint" />
          </mxGeometry>
        </mxCell>
        <mxCell id="QkZP8UbgmEBXB7G_kgU3-38" value="" style="endArrow=none;html=1;rounded=0;entryX=1;entryY=0.5;entryDx=0;entryDy=0;strokeColor=#CCE5FF;" edge="1" parent="1" target="QkZP8UbgmEBXB7G_kgU3-32">
          <mxGeometry width="50" height="50" relative="1" as="geometry">
            <mxPoint x="330" y="450" as="sourcePoint" />
            <mxPoint x="340" y="420" as="targetPoint" />
          </mxGeometry>
        </mxCell>
        <mxCell id="QkZP8UbgmEBXB7G_kgU3-39" value="" style="endArrow=none;html=1;rounded=0;entryX=0.663;entryY=1.005;entryDx=0;entryDy=0;entryPerimeter=0;exitX=0.705;exitY=0.012;exitDx=0;exitDy=0;exitPerimeter=0;strokeColor=#CCE5FF;" edge="1" parent="1" source="QkZP8UbgmEBXB7G_kgU3-23" target="QkZP8UbgmEBXB7G_kgU3-12">
          <mxGeometry width="50" height="50" relative="1" as="geometry">
            <mxPoint x="290" y="470" as="sourcePoint" />
            <mxPoint x="340" y="420" as="targetPoint" />
          </mxGeometry>
        </mxCell>
        <mxCell id="QkZP8UbgmEBXB7G_kgU3-40" value="" style="endArrow=none;html=1;rounded=0;entryX=0.25;entryY=1;entryDx=0;entryDy=0;strokeColor=#CCE5FF;" edge="1" parent="1" target="QkZP8UbgmEBXB7G_kgU3-37">
          <mxGeometry width="50" height="50" relative="1" as="geometry">
            <mxPoint x="210" y="450" as="sourcePoint" />
            <mxPoint x="340" y="420" as="targetPoint" />
          </mxGeometry>
        </mxCell>
        <mxCell id="QkZP8UbgmEBXB7G_kgU3-41" value="" style="endArrow=none;html=1;rounded=0;entryX=0.5;entryY=1;entryDx=0;entryDy=0;strokeColor=#CCE5FF;" edge="1" parent="1" source="QkZP8UbgmEBXB7G_kgU3-68" target="QkZP8UbgmEBXB7G_kgU3-9">
          <mxGeometry width="50" height="50" relative="1" as="geometry">
            <mxPoint x="210" y="450" as="sourcePoint" />
            <mxPoint x="420" y="400" as="targetPoint" />
          </mxGeometry>
        </mxCell>
        <mxCell id="QkZP8UbgmEBXB7G_kgU3-42" value="" style="endArrow=none;html=1;rounded=0;entryX=0.25;entryY=1;entryDx=0;entryDy=0;strokeColor=#33FF33;" edge="1" parent="1" target="QkZP8UbgmEBXB7G_kgU3-9">
          <mxGeometry width="50" height="50" relative="1" as="geometry">
            <mxPoint x="190" y="480" as="sourcePoint" />
            <mxPoint x="420" y="400" as="targetPoint" />
          </mxGeometry>
        </mxCell>
        <mxCell id="QkZP8UbgmEBXB7G_kgU3-43" value="" style="endArrow=none;html=1;rounded=0;entryX=0.25;entryY=1;entryDx=0;entryDy=0;strokeColor=#FF66B3;" edge="1" parent="1">
          <mxGeometry width="50" height="50" relative="1" as="geometry">
            <mxPoint x="180" y="490" as="sourcePoint" />
            <mxPoint x="180" y="320" as="targetPoint" />
          </mxGeometry>
        </mxCell>
        <mxCell id="QkZP8UbgmEBXB7G_kgU3-44" value="" style="endArrow=none;html=1;rounded=0;entryX=0;entryY=0.25;entryDx=0;entryDy=0;strokeColor=#33FF33;" edge="1" parent="1" target="QkZP8UbgmEBXB7G_kgU3-23">
          <mxGeometry width="50" height="50" relative="1" as="geometry">
            <mxPoint x="190" y="480" as="sourcePoint" />
            <mxPoint x="420" y="400" as="targetPoint" />
          </mxGeometry>
        </mxCell>
        <mxCell id="QkZP8UbgmEBXB7G_kgU3-45" value="" style="endArrow=none;html=1;rounded=0;entryX=0;entryY=0.25;entryDx=0;entryDy=0;strokeColor=#FF66B3;" edge="1" parent="1">
          <mxGeometry width="50" height="50" relative="1" as="geometry">
            <mxPoint x="180" y="490" as="sourcePoint" />
            <mxPoint x="280" y="489.8" as="targetPoint" />
          </mxGeometry>
        </mxCell>
        <mxCell id="QkZP8UbgmEBXB7G_kgU3-47" value="I²C" style="text;html=1;strokeColor=none;fillColor=none;align=center;verticalAlign=middle;whiteSpace=wrap;rounded=0;" vertex="1" parent="1">
          <mxGeometry x="210" y="490" width="60" height="30" as="geometry" />
        </mxCell>
        <mxCell id="QkZP8UbgmEBXB7G_kgU3-48" value="OLED" style="rounded=0;whiteSpace=wrap;html=1;" vertex="1" parent="1">
          <mxGeometry x="70" y="450" width="70" height="40" as="geometry" />
        </mxCell>
        <mxCell id="QkZP8UbgmEBXB7G_kgU3-52" value="" style="endArrow=none;html=1;rounded=0;entryX=1;entryY=0.75;entryDx=0;entryDy=0;strokeColor=#FF66B3;" edge="1" parent="1" target="QkZP8UbgmEBXB7G_kgU3-48">
          <mxGeometry width="50" height="50" relative="1" as="geometry">
            <mxPoint x="180" y="480" as="sourcePoint" />
            <mxPoint x="150" y="470" as="targetPoint" />
          </mxGeometry>
        </mxCell>
        <mxCell id="QkZP8UbgmEBXB7G_kgU3-54" value="" style="endArrow=none;html=1;rounded=0;entryX=0;entryY=0.5;entryDx=0;entryDy=0;exitX=1;exitY=0.5;exitDx=0;exitDy=0;strokeColor=#33FF33;" edge="1" parent="1" source="QkZP8UbgmEBXB7G_kgU3-48" target="QkZP8UbgmEBXB7G_kgU3-53">
          <mxGeometry width="50" height="50" relative="1" as="geometry">
            <mxPoint x="130" y="500" as="sourcePoint" />
            <mxPoint x="180" y="450" as="targetPoint" />
          </mxGeometry>
        </mxCell>
        <mxCell id="QkZP8UbgmEBXB7G_kgU3-55" value="" style="endArrow=none;html=1;rounded=0;exitX=1;exitY=0.5;exitDx=0;exitDy=0;strokeColor=#33FF33;" edge="1" parent="1" source="QkZP8UbgmEBXB7G_kgU3-53">
          <mxGeometry width="50" height="50" relative="1" as="geometry">
            <mxPoint x="130" y="500" as="sourcePoint" />
            <mxPoint x="190" y="470" as="targetPoint" />
          </mxGeometry>
        </mxCell>
        <mxCell id="QkZP8UbgmEBXB7G_kgU3-57" value="" style="endArrow=none;html=1;rounded=0;strokeColor=#CCE5FF;" edge="1" parent="1">
          <mxGeometry width="50" height="50" relative="1" as="geometry">
            <mxPoint x="120" y="450" as="sourcePoint" />
            <mxPoint x="120" y="420" as="targetPoint" />
          </mxGeometry>
        </mxCell>
        <mxCell id="QkZP8UbgmEBXB7G_kgU3-58" value="" style="endArrow=none;html=1;rounded=0;strokeColor=#FF9999;" edge="1" parent="1">
          <mxGeometry width="50" height="50" relative="1" as="geometry">
            <mxPoint x="100" y="450" as="sourcePoint" />
            <mxPoint x="100" y="400" as="targetPoint" />
          </mxGeometry>
        </mxCell>
        <mxCell id="QkZP8UbgmEBXB7G_kgU3-63" value="" style="endArrow=none;html=1;rounded=0;strokeColor=#CCE5FF;" edge="1" parent="1">
          <mxGeometry width="50" height="50" relative="1" as="geometry">
            <mxPoint x="120" y="420" as="sourcePoint" />
            <mxPoint x="175" y="420" as="targetPoint" />
          </mxGeometry>
        </mxCell>
        <mxCell id="QkZP8UbgmEBXB7G_kgU3-64" value="" style="endArrow=none;html=1;rounded=0;strokeColor=#CCE5FF;" edge="1" parent="1">
          <mxGeometry width="50" height="50" relative="1" as="geometry">
            <mxPoint x="195" y="420" as="sourcePoint" />
            <mxPoint x="210" y="420" as="targetPoint" />
          </mxGeometry>
        </mxCell>
        <mxCell id="QkZP8UbgmEBXB7G_kgU3-67" value="" style="endArrow=none;html=1;rounded=0;strokeColor=#FF9999;" edge="1" parent="1">
          <mxGeometry width="50" height="50" relative="1" as="geometry">
            <mxPoint x="100" y="400" as="sourcePoint" />
            <mxPoint x="175" y="400" as="targetPoint" />
          </mxGeometry>
        </mxCell>
        <mxCell id="QkZP8UbgmEBXB7G_kgU3-69" value="" style="endArrow=none;html=1;rounded=0;entryX=0.5;entryY=1;entryDx=0;entryDy=0;strokeColor=#CCE5FF;" edge="1" parent="1" target="QkZP8UbgmEBXB7G_kgU3-68">
          <mxGeometry width="50" height="50" relative="1" as="geometry">
            <mxPoint x="210" y="450" as="sourcePoint" />
            <mxPoint x="210" y="320" as="targetPoint" />
          </mxGeometry>
        </mxCell>
        <mxCell id="QkZP8UbgmEBXB7G_kgU3-72" value="" style="endArrow=none;html=1;rounded=0;entryX=0.5;entryY=0;entryDx=0;entryDy=0;strokeColor=#CCE5FF;" edge="1" parent="1" target="QkZP8UbgmEBXB7G_kgU3-68">
          <mxGeometry width="50" height="50" relative="1" as="geometry">
            <mxPoint x="210" y="420" as="sourcePoint" />
            <mxPoint x="210" y="400" as="targetPoint" />
          </mxGeometry>
        </mxCell>
        <mxCell id="QkZP8UbgmEBXB7G_kgU3-73" value="" style="endArrow=none;html=1;rounded=0;strokeColor=#FF9999;" edge="1" parent="1">
          <mxGeometry width="50" height="50" relative="1" as="geometry">
            <mxPoint x="195" y="400" as="sourcePoint" />
            <mxPoint x="200" y="400" as="targetPoint" />
          </mxGeometry>
        </mxCell>
        <mxCell id="QkZP8UbgmEBXB7G_kgU3-74" value="" style="endArrow=none;html=1;rounded=0;exitX=0.921;exitY=-0.114;exitDx=0;exitDy=0;exitPerimeter=0;strokeColor=#FF9999;" edge="1" parent="1" source="QkZP8UbgmEBXB7G_kgU3-66">
          <mxGeometry width="50" height="50" relative="1" as="geometry">
            <mxPoint x="170" y="440" as="sourcePoint" />
            <mxPoint x="230" y="400" as="targetPoint" />
          </mxGeometry>
        </mxCell>
        <mxCell id="QkZP8UbgmEBXB7G_kgU3-76" value="" style="endArrow=classic;html=1;rounded=0;entryX=0.5;entryY=1;entryDx=0;entryDy=0;" edge="1" parent="1" target="QkZP8UbgmEBXB7G_kgU3-2">
          <mxGeometry width="50" height="50" relative="1" as="geometry">
            <mxPoint x="480" y="500" as="sourcePoint" />
            <mxPoint x="420" y="370" as="targetPoint" />
          </mxGeometry>
        </mxCell>
        <mxCell id="QkZP8UbgmEBXB7G_kgU3-77" value="" style="endArrow=none;html=1;rounded=0;entryX=1;entryY=0.75;entryDx=0;entryDy=0;" edge="1" parent="1" target="QkZP8UbgmEBXB7G_kgU3-23">
          <mxGeometry width="50" height="50" relative="1" as="geometry">
            <mxPoint x="480" y="500" as="sourcePoint" />
            <mxPoint x="420" y="370" as="targetPoint" />
          </mxGeometry>
        </mxCell>
        <mxCell id="QkZP8UbgmEBXB7G_kgU3-83" value="USB" style="text;html=1;strokeColor=none;fillColor=none;align=center;verticalAlign=middle;whiteSpace=wrap;rounded=0;" vertex="1" parent="1">
          <mxGeometry x="395" y="470" width="60" height="30" as="geometry" />
        </mxCell>
      </root>
    </mxGraphModel>
  </diagram>
</mxfile>
